<svg width="28" height="20" viewBox="0 0 28 20" fill="none" xmlns="http://www.w3.org/2000/svg">
<path fill-rule="evenodd" clip-rule="evenodd" d="M12.7169 4.77252L11.6348 6.63926H22.5725C23.9547 6.63926 25.2321 5.90217 25.9237 4.70537L27.0002 2.84277H16.0655C14.6851 2.84303 13.4093 3.57805 12.7169 4.77252ZM11.6355 6.63945H9.48464C8.10034 6.63945 6.82142 7.3786 6.13056 8.57824L0.658203 18.0477H7.20598C8.58924 18.0477 9.86739 17.3096 10.5588 16.1113L11.6357 14.2448H7.24704L11.6355 6.63945ZM11.6348 14.2447L12.7112 12.3821C13.4031 11.1853 14.6805 10.4482 16.0627 10.4482H22.6185L21.5364 12.315C20.844 13.5094 19.5679 14.2447 18.1874 14.2447H11.6348Z" fill="currentColor"/>
</svg>
