<svg width="32" height="32" viewBox="0 0 32 32" fill="none" xmlns="http://www.w3.org/2000/svg">
<rect width="32" height="32" rx="4" fill="#8D4AE3"/>
<path fill-rule="evenodd" clip-rule="evenodd" d="M28 8.00364C27.8094 9.44092 26.5693 11.2308 25.5279 11.752C24.5411 12.2452 22.994 12.1035 21.6137 12.1035C19.0736 12.1035 16.5315 12.1035 13.9914 12.1035C13.8112 12.8883 13.2941 13.4798 12.9614 14.0948C12.2908 15.3365 11.8767 16.6039 11.2103 17.8432C10.8735 18.4699 10.3832 19.0567 10.1803 19.8345C11.4853 19.8345 12.7894 19.8345 14.0944 19.8345C15.3748 15.1022 18.8512 15.8975 24.0858 15.969C24.0858 16.0076 24.0858 16.0475 24.0858 16.0861C23.2031 17.1497 22.9548 18.6913 21.8197 19.4831C20.4941 20.4085 16.1092 19.9704 13.9914 19.9517C12.9253 24.6383 9.08635 24.0023 4 23.9343C4 23.8559 4 23.7786 4 23.7001C4.70558 22.886 5.00326 21.6595 5.54506 20.6545C6.34644 19.1668 7.21476 17.5773 8.01717 16.0861C8.8 14.6313 9.25219 12.9035 10.6953 12.2206C11.5276 11.827 12.9624 11.9664 14.0944 11.9863C14.319 11.048 15.4932 9.02274 16.1545 8.58933C17.1804 7.91696 18.7626 8.00364 20.3777 8.00364C22.9178 8.00364 25.4589 8.00364 28 8.00364Z" fill="white"/>
</svg>
