<svg width="108" height="19" viewBox="0 0 108 19" fill="none" xmlns="http://www.w3.org/2000/svg">
<path fill-rule="evenodd" clip-rule="evenodd" d="M9.0699 3.70471L7.27368 6.8033H25.4292C27.7236 6.8033 29.8439 5.57981 30.9919 3.59325L32.7787 0.501526H14.6283C12.337 0.501955 10.2192 1.72201 9.0699 3.70471ZM88.501 16V4.09601H86.565V16H88.501ZM49.696 11.216V9.37601H45.344V6.19201H50.528V4.30401H43.296V16H45.344V11.216H49.696ZM54.6928 16.208C56.7568 16.208 58.1968 15.168 58.5328 13.44H56.7248C56.5008 14.192 55.7968 14.608 54.7248 14.608C53.4288 14.608 52.6928 13.904 52.5488 12.512L58.5008 12.496V11.904C58.5008 9.44001 56.9968 7.85601 54.6288 7.85601C52.3088 7.85601 50.6928 9.56801 50.6928 12.048C50.6928 14.496 52.3408 16.208 54.6928 16.208ZM54.6448 9.45601C55.8128 9.45601 56.5648 10.176 56.5648 11.264H52.5968C52.7888 10.08 53.4928 9.45601 54.6448 9.45601ZM61.695 11.744V16H59.743V8.09601H61.551L61.711 9.12001C62.207 8.32001 63.167 7.85601 64.239 7.85601C66.223 7.85601 67.247 9.08801 67.247 11.136V16H65.295V11.6C65.295 10.272 64.639 9.63201 63.631 9.63201C62.431 9.63201 61.695 10.464 61.695 11.744ZM70.7969 16V11.744C70.7969 10.464 71.5329 9.63201 72.7329 9.63201C73.7409 9.63201 74.3969 10.272 74.3969 11.6V16H76.3489V11.136C76.3489 9.08801 75.3249 7.85601 73.3409 7.85601C72.2689 7.85601 71.3089 8.32001 70.8129 9.12001L70.6529 8.09601H68.8449V16H70.7969ZM85.3228 13.44C84.9868 15.168 83.5468 16.208 81.4828 16.208C79.1308 16.208 77.4828 14.496 77.4828 12.048C77.4828 9.56801 79.0988 7.85601 81.4188 7.85601C83.7868 7.85601 85.2908 9.44001 85.2908 11.904V12.496L79.3388 12.512C79.4828 13.904 80.2188 14.608 81.5148 14.608C82.5868 14.608 83.2908 14.192 83.5148 13.44H85.3228ZM83.3548 11.264C83.3548 10.176 82.6028 9.45601 81.4348 9.45601C80.2828 9.45601 79.5788 10.08 79.3868 11.264H83.3548ZM96.4611 13.296L95.5171 16H93.3891L97.6131 4.30401H99.7091L103.933 16H101.773L100.829 13.296H96.4611ZM98.6531 6.89601C98.6051 7.12001 98.5091 7.47201 98.3971 7.79201L97.0691 11.568H100.237L98.8931 7.79201L98.8878 7.77514C98.793 7.47506 98.6846 7.13158 98.6531 6.89601ZM107.128 4.30401H105.08V16H107.128V4.30401ZM0.971069 18.0081L2.75786 14.9163C3.90632 12.9298 6.02663 11.7063 8.32099 11.7063H20.6035L18.8073 14.8049C17.658 16.7876 15.5398 18.0081 13.2484 18.0081H0.971069Z" fill="#38353F"/>
</svg>
