<svg width="110" height="23" viewBox="0 0 110 23" fill="none" xmlns="http://www.w3.org/2000/svg">
<path fill-rule="evenodd" clip-rule="evenodd" d="M18.6252 2.9052L16.9961 5.71554H33.4627C35.5436 5.71554 37.4667 4.60587 38.5079 2.80411L40.1285 0H23.6666C21.5884 0.000388812 19.6676 1.10695 18.6252 2.9052ZM16.9968 5.71558H13.7587C11.6747 5.71558 9.74931 6.82836 8.70924 8.63439L0.470703 22.8906H10.3283C12.4107 22.8906 14.335 21.7794 15.3758 19.9753L16.9969 17.1657H26.861C28.9392 17.1657 30.8604 16.0588 31.9028 14.2605L33.5319 11.4502H23.6623C21.5814 11.4502 19.6583 12.5599 18.6167 14.3616L16.9963 17.1653H10.3901L16.9968 5.71558Z" fill="#111013"/>
<path d="M52.1666 13.2159V11.3759H47.8146V8.19195H52.9986V6.30395H45.7666V17.9999H47.8146V13.2159H52.1666Z" fill="#111013"/>
<path d="M57.1634 18.2079C59.2274 18.2079 60.6674 17.1679 61.0034 15.4399H59.1954C58.9714 16.1919 58.2674 16.6079 57.1954 16.6079C55.8994 16.6079 55.1634 15.9039 55.0194 14.5119L60.9714 14.4959V13.9039C60.9714 11.4399 59.4674 9.85595 57.0994 9.85595C54.7794 9.85595 53.1634 11.5679 53.1634 14.0479C53.1634 16.4959 54.8114 18.2079 57.1634 18.2079ZM57.1154 11.4559C58.2834 11.4559 59.0354 12.1759 59.0354 13.2639H55.0674C55.2594 12.0799 55.9634 11.4559 57.1154 11.4559Z" fill="#111013"/>
<path d="M64.1656 17.9999V13.7439C64.1656 12.4639 64.9016 11.6319 66.1016 11.6319C67.1096 11.6319 67.7656 12.2719 67.7656 13.5999V17.9999H69.7176V13.1359C69.7176 11.0879 68.6936 9.85595 66.7096 9.85595C65.6376 9.85595 64.6776 10.3199 64.1816 11.1199L64.0216 10.0959H62.2136V17.9999H64.1656Z" fill="#111013"/>
<path d="M73.2675 17.9999V13.7439C73.2675 12.4639 74.0035 11.6319 75.2035 11.6319C76.2115 11.6319 76.8675 12.2719 76.8675 13.5999V17.9999H78.8195V13.1359C78.8195 11.0879 77.7955 9.85595 75.8115 9.85595C74.7395 9.85595 73.7795 10.3199 73.2835 11.1199L73.1235 10.0959H71.3155V17.9999H73.2675Z" fill="#111013"/>
<path d="M83.9534 18.2079C86.0173 18.2079 87.4574 17.1679 87.7934 15.4399H85.9854C85.7614 16.1919 85.0574 16.6079 83.9854 16.6079C82.6894 16.6079 81.9534 15.9039 81.8094 14.5119L87.7614 14.4959V13.9039C87.7614 11.4399 86.2574 9.85595 83.8894 9.85595C81.5694 9.85595 79.9534 11.5679 79.9534 14.0479C79.9534 16.4959 81.6013 18.2079 83.9534 18.2079ZM83.9054 11.4559C85.0734 11.4559 85.8254 12.1759 85.8254 13.2639H81.8574C82.0494 12.0799 82.7534 11.4559 83.9054 11.4559Z" fill="#111013"/>
<path d="M90.9716 17.9999V6.09595H89.0356V17.9999H90.9716Z" fill="#111013"/>
<path d="M97.9877 17.9999L98.9317 15.2959H103.3L104.244 17.9999H106.404L102.18 6.30395H100.084L95.8597 17.9999H97.9877ZM100.868 9.79195C100.98 9.47195 101.076 9.11995 101.124 8.89595C101.156 9.13595 101.268 9.48795 101.364 9.79195L102.708 13.5679H99.5397L100.868 9.79195Z" fill="#111013"/>
<path d="M109.598 6.30395H107.55V17.9999H109.598V6.30395Z" fill="#111013"/>
</svg>
