<svg width="712" height="502" viewBox="0 0 712 502" fill="none" xmlns="http://www.w3.org/2000/svg">
<g clip-path="url(#clip0_384_225381)">
<g clip-path="url(#clip1_384_225381)">
<g clip-path="url(#clip2_384_225381)">
<rect x="4.02676" y="387.367" width="2.73453" height="2.73453" rx="1.29515" fill="white"/>
<rect x="14.9648" y="387.367" width="2.73453" height="2.73453" rx="1.29515" fill="white"/>
<rect x="25.9038" y="387.367" width="2.73453" height="2.73453" rx="1.29515" fill="white"/>
<rect x="36.8416" y="387.367" width="2.73453" height="2.73453" rx="1.29515" fill="white"/>
<rect x="47.7787" y="387.367" width="2.73453" height="2.73453" rx="1.29515" fill="white"/>
<rect x="58.7177" y="387.367" width="2.73453" height="2.73453" rx="1.29515" fill="white"/>
<rect x="69.6557" y="387.367" width="2.73453" height="2.73453" rx="1.29515" fill="white"/>
<rect x="80.5936" y="387.367" width="2.73453" height="2.73453" rx="1.29515" fill="white"/>
<rect x="4.02676" y="398.305" width="2.73453" height="2.73453" rx="1.29515" fill="white"/>
<rect x="14.9648" y="398.305" width="2.73453" height="2.73453" rx="1.29515" fill="white"/>
<rect x="25.9038" y="398.305" width="2.73453" height="2.73453" rx="1.29515" fill="white"/>
<rect x="36.8416" y="398.305" width="2.73453" height="2.73453" rx="1.29515" fill="white"/>
<rect x="47.7787" y="398.305" width="2.73453" height="2.73453" rx="1.29515" fill="white"/>
<rect x="58.7177" y="398.305" width="2.73453" height="2.73453" rx="1.29515" fill="white"/>
<rect x="69.6557" y="398.305" width="2.73453" height="2.73453" rx="1.29515" fill="white"/>
<rect x="80.5936" y="398.305" width="2.73453" height="2.73453" rx="1.29515" fill="white"/>
<rect x="4.02676" y="409.243" width="2.73453" height="2.73453" rx="1.29515" fill="white"/>
<rect x="14.9648" y="409.243" width="2.73453" height="2.73453" rx="1.29515" fill="white"/>
<rect x="25.9038" y="409.243" width="2.73453" height="2.73453" rx="1.29515" fill="white"/>
<rect x="36.8416" y="409.243" width="2.73453" height="2.73453" rx="1.29515" fill="white"/>
<rect x="47.7787" y="409.243" width="2.73453" height="2.73453" rx="1.29515" fill="white"/>
<rect x="58.7177" y="409.243" width="2.73453" height="2.73453" rx="1.29515" fill="white"/>
<rect x="69.6557" y="409.243" width="2.73453" height="2.73453" rx="1.29515" fill="white"/>
<rect x="80.5936" y="409.243" width="2.73453" height="2.73453" rx="1.29515" fill="white"/>
<rect x="4.02676" y="420.181" width="2.73453" height="2.73453" rx="1.29515" fill="white"/>
<rect x="14.9648" y="420.181" width="2.73453" height="2.73453" rx="1.29515" fill="white"/>
<rect x="25.9038" y="420.181" width="2.73453" height="2.73453" rx="1.29515" fill="white"/>
<rect x="36.8416" y="420.181" width="2.73453" height="2.73453" rx="1.29515" fill="white"/>
<rect x="47.7787" y="420.181" width="2.73453" height="2.73453" rx="1.29515" fill="white"/>
<rect x="58.7177" y="420.181" width="2.73453" height="2.73453" rx="1.29515" fill="white"/>
<rect x="69.6557" y="420.181" width="2.73453" height="2.73453" rx="1.29515" fill="white"/>
<rect x="80.5936" y="420.181" width="2.73453" height="2.73453" rx="1.29515" fill="white"/>
<rect x="4.02676" y="431.119" width="2.73453" height="2.73453" rx="1.29515" fill="white"/>
<rect x="14.9648" y="431.119" width="2.73453" height="2.73453" rx="1.29515" fill="white"/>
<rect x="25.9038" y="431.119" width="2.73453" height="2.73453" rx="1.29515" fill="white"/>
<rect x="36.8416" y="431.119" width="2.73453" height="2.73453" rx="1.29515" fill="white"/>
<rect x="47.7787" y="431.119" width="2.73453" height="2.73453" rx="1.29515" fill="white"/>
<rect x="58.7177" y="431.119" width="2.73453" height="2.73453" rx="1.29515" fill="white"/>
<rect x="69.6557" y="431.119" width="2.73453" height="2.73453" rx="1.29515" fill="white"/>
<rect x="80.5936" y="431.119" width="2.73453" height="2.73453" rx="1.29515" fill="white"/>
<rect x="4.02676" y="442.057" width="2.73453" height="2.73453" rx="1.29515" fill="white"/>
<rect x="4.02676" y="452.607" width="2.73453" height="2.73453" rx="1.29515" fill="white"/>
<rect x="4.02676" y="463.156" width="2.73453" height="2.73453" rx="1.29515" fill="white"/>
<rect x="4.02676" y="473.706" width="2.73453" height="2.73453" rx="1.29515" fill="white"/>
<rect x="14.9648" y="442.057" width="2.73453" height="2.73453" rx="1.29515" fill="white"/>
<rect x="14.9648" y="452.607" width="2.73453" height="2.73453" rx="1.29515" fill="white"/>
<rect x="14.9648" y="463.156" width="2.73453" height="2.73453" rx="1.29515" fill="white"/>
<rect x="14.9648" y="473.706" width="2.73453" height="2.73453" rx="1.29515" fill="white"/>
<rect x="25.9038" y="442.057" width="2.73453" height="2.73453" rx="1.29515" fill="white"/>
<rect x="25.9038" y="452.607" width="2.73453" height="2.73453" rx="1.29515" fill="white"/>
<rect x="25.9038" y="463.156" width="2.73453" height="2.73453" rx="1.29515" fill="white"/>
<rect x="25.9038" y="473.706" width="2.73453" height="2.73453" rx="1.29515" fill="white"/>
<rect x="36.8416" y="442.057" width="2.73453" height="2.73453" rx="1.29515" fill="white"/>
<rect x="36.8416" y="452.607" width="2.73453" height="2.73453" rx="1.29515" fill="white"/>
<rect x="36.8416" y="463.156" width="2.73453" height="2.73453" rx="1.29515" fill="white"/>
<rect x="36.8416" y="473.706" width="2.73453" height="2.73453" rx="1.29515" fill="white"/>
<rect x="47.7787" y="442.057" width="2.73453" height="2.73453" rx="1.29515" fill="white"/>
<rect x="47.7787" y="452.607" width="2.73453" height="2.73453" rx="1.29515" fill="white"/>
<rect x="47.7787" y="463.156" width="2.73453" height="2.73453" rx="1.29515" fill="white"/>
<rect x="47.7787" y="473.706" width="2.73453" height="2.73453" rx="1.29515" fill="white"/>
<rect x="58.7177" y="442.057" width="2.73453" height="2.73453" rx="1.29515" fill="white"/>
<rect x="58.7177" y="452.607" width="2.73453" height="2.73453" rx="1.29515" fill="white"/>
<rect x="58.7177" y="463.156" width="2.73453" height="2.73453" rx="1.29515" fill="white"/>
<rect x="58.7177" y="473.706" width="2.73453" height="2.73453" rx="1.29515" fill="white"/>
<rect x="69.6557" y="442.057" width="2.73453" height="2.73453" rx="1.29515" fill="white"/>
<rect x="69.6557" y="452.607" width="2.73453" height="2.73453" rx="1.29515" fill="white"/>
<rect x="69.6557" y="463.156" width="2.73453" height="2.73453" rx="1.29515" fill="white"/>
<rect x="69.6557" y="473.706" width="2.73453" height="2.73453" rx="1.29515" fill="white"/>
<rect x="80.5936" y="442.057" width="2.73453" height="2.73453" rx="1.29515" fill="white"/>
<rect x="80.5936" y="452.607" width="2.73453" height="2.73453" rx="1.29515" fill="white"/>
<rect x="80.5936" y="463.156" width="2.73453" height="2.73453" rx="1.29515" fill="white"/>
<rect x="80.5936" y="473.706" width="2.73453" height="2.73453" rx="1.29515" fill="white"/>
</g>
</g>
<g clip-path="url(#clip3_384_225381)">
<g clip-path="url(#clip4_384_225381)">
<rect x="92.0268" y="387.367" width="2.73453" height="2.73453" rx="1.29515" fill="white"/>
<rect x="102.965" y="387.367" width="2.73453" height="2.73453" rx="1.29515" fill="white"/>
<rect x="113.904" y="387.367" width="2.73453" height="2.73453" rx="1.29515" fill="white"/>
<rect x="124.842" y="387.367" width="2.73453" height="2.73453" rx="1.29515" fill="white"/>
<rect x="135.779" y="387.367" width="2.73453" height="2.73453" rx="1.29515" fill="white"/>
<rect x="146.718" y="387.367" width="2.73453" height="2.73453" rx="1.29515" fill="white"/>
<rect x="157.656" y="387.367" width="2.73453" height="2.73453" rx="1.29515" fill="white"/>
<rect x="168.594" y="387.367" width="2.73453" height="2.73453" rx="1.29515" fill="white"/>
<rect x="92.0268" y="398.305" width="2.73453" height="2.73453" rx="1.29515" fill="white"/>
<rect x="102.965" y="398.305" width="2.73453" height="2.73453" rx="1.29515" fill="white"/>
<rect x="113.904" y="398.305" width="2.73453" height="2.73453" rx="1.29515" fill="white"/>
<rect x="124.842" y="398.305" width="2.73453" height="2.73453" rx="1.29515" fill="white"/>
<rect x="135.779" y="398.305" width="2.73453" height="2.73453" rx="1.29515" fill="white"/>
<rect x="146.718" y="398.305" width="2.73453" height="2.73453" rx="1.29515" fill="white"/>
<rect x="157.656" y="398.305" width="2.73453" height="2.73453" rx="1.29515" fill="white"/>
<rect x="168.594" y="398.305" width="2.73453" height="2.73453" rx="1.29515" fill="white"/>
<rect x="92.0268" y="409.243" width="2.73453" height="2.73453" rx="1.29515" fill="white"/>
<rect x="102.965" y="409.243" width="2.73453" height="2.73453" rx="1.29515" fill="white"/>
<rect x="113.904" y="409.243" width="2.73453" height="2.73453" rx="1.29515" fill="white"/>
<rect x="124.842" y="409.243" width="2.73453" height="2.73453" rx="1.29515" fill="white"/>
<rect x="135.779" y="409.243" width="2.73453" height="2.73453" rx="1.29515" fill="white"/>
<rect x="146.718" y="409.243" width="2.73453" height="2.73453" rx="1.29515" fill="white"/>
<rect x="157.656" y="409.243" width="2.73453" height="2.73453" rx="1.29515" fill="white"/>
<rect x="168.594" y="409.243" width="2.73453" height="2.73453" rx="1.29515" fill="white"/>
<rect x="92.0268" y="420.181" width="2.73453" height="2.73453" rx="1.29515" fill="white"/>
<rect x="102.965" y="420.181" width="2.73453" height="2.73453" rx="1.29515" fill="white"/>
<rect x="113.904" y="420.181" width="2.73453" height="2.73453" rx="1.29515" fill="white"/>
<rect x="124.842" y="420.181" width="2.73453" height="2.73453" rx="1.29515" fill="white"/>
<rect x="135.779" y="420.181" width="2.73453" height="2.73453" rx="1.29515" fill="white"/>
<rect x="146.718" y="420.181" width="2.73453" height="2.73453" rx="1.29515" fill="white"/>
<rect x="157.656" y="420.181" width="2.73453" height="2.73453" rx="1.29515" fill="white"/>
<rect x="168.594" y="420.181" width="2.73453" height="2.73453" rx="1.29515" fill="white"/>
<rect x="92.0268" y="431.119" width="2.73453" height="2.73453" rx="1.29515" fill="white"/>
<rect x="102.965" y="431.119" width="2.73453" height="2.73453" rx="1.29515" fill="white"/>
<rect x="113.904" y="431.119" width="2.73453" height="2.73453" rx="1.29515" fill="white"/>
<rect x="124.842" y="431.119" width="2.73453" height="2.73453" rx="1.29515" fill="white"/>
<rect x="135.779" y="431.119" width="2.73453" height="2.73453" rx="1.29515" fill="white"/>
<rect x="146.718" y="431.119" width="2.73453" height="2.73453" rx="1.29515" fill="white"/>
<rect x="157.656" y="431.119" width="2.73453" height="2.73453" rx="1.29515" fill="white"/>
<rect x="168.594" y="431.119" width="2.73453" height="2.73453" rx="1.29515" fill="white"/>
<rect x="92.0268" y="442.057" width="2.73453" height="2.73453" rx="1.29515" fill="white"/>
<rect x="92.0268" y="452.607" width="2.73453" height="2.73453" rx="1.29515" fill="white"/>
<rect x="92.0268" y="463.156" width="2.73453" height="2.73453" rx="1.29515" fill="white"/>
<rect x="92.0268" y="473.706" width="2.73453" height="2.73453" rx="1.29515" fill="white"/>
<rect x="102.965" y="442.057" width="2.73453" height="2.73453" rx="1.29515" fill="white"/>
<rect x="102.965" y="452.607" width="2.73453" height="2.73453" rx="1.29515" fill="white"/>
<rect x="102.965" y="463.156" width="2.73453" height="2.73453" rx="1.29515" fill="white"/>
<rect x="102.965" y="473.706" width="2.73453" height="2.73453" rx="1.29515" fill="white"/>
<rect x="113.904" y="442.057" width="2.73453" height="2.73453" rx="1.29515" fill="white"/>
<rect x="113.904" y="452.607" width="2.73453" height="2.73453" rx="1.29515" fill="white"/>
<rect x="113.904" y="463.156" width="2.73453" height="2.73453" rx="1.29515" fill="white"/>
<rect x="113.904" y="473.706" width="2.73453" height="2.73453" rx="1.29515" fill="white"/>
<rect x="124.842" y="442.057" width="2.73453" height="2.73453" rx="1.29515" fill="white"/>
<rect x="124.842" y="452.607" width="2.73453" height="2.73453" rx="1.29515" fill="white"/>
<rect x="124.842" y="463.156" width="2.73453" height="2.73453" rx="1.29515" fill="white"/>
<rect x="124.842" y="473.706" width="2.73453" height="2.73453" rx="1.29515" fill="white"/>
<rect x="135.779" y="442.057" width="2.73453" height="2.73453" rx="1.29515" fill="white"/>
<rect x="135.779" y="452.607" width="2.73453" height="2.73453" rx="1.29515" fill="white"/>
<rect x="135.779" y="463.156" width="2.73453" height="2.73453" rx="1.29515" fill="white"/>
<rect x="135.779" y="473.706" width="2.73453" height="2.73453" rx="1.29515" fill="white"/>
<rect x="146.718" y="442.057" width="2.73453" height="2.73453" rx="1.29515" fill="white"/>
<rect x="146.718" y="452.607" width="2.73453" height="2.73453" rx="1.29515" fill="white"/>
<rect x="146.718" y="463.156" width="2.73453" height="2.73453" rx="1.29515" fill="white"/>
<rect x="146.718" y="473.706" width="2.73453" height="2.73453" rx="1.29515" fill="white"/>
<rect x="157.656" y="442.057" width="2.73453" height="2.73453" rx="1.29515" fill="white"/>
<rect x="157.656" y="452.607" width="2.73453" height="2.73453" rx="1.29515" fill="white"/>
<rect x="157.656" y="463.156" width="2.73453" height="2.73453" rx="1.29515" fill="white"/>
<rect x="157.656" y="473.706" width="2.73453" height="2.73453" rx="1.29515" fill="white"/>
<rect x="168.594" y="442.057" width="2.73453" height="2.73453" rx="1.29515" fill="white"/>
<rect x="168.594" y="452.607" width="2.73453" height="2.73453" rx="1.29515" fill="white"/>
<rect x="168.594" y="463.156" width="2.73453" height="2.73453" rx="1.29515" fill="white"/>
<rect x="168.594" y="473.706" width="2.73453" height="2.73453" rx="1.29515" fill="white"/>
</g>
</g>
<g clip-path="url(#clip5_384_225381)">
<g clip-path="url(#clip6_384_225381)">
<rect x="180.027" y="387.367" width="2.73453" height="2.73453" rx="1.29515" fill="white"/>
<rect x="190.965" y="387.367" width="2.73453" height="2.73453" rx="1.29515" fill="white"/>
<rect x="201.904" y="387.367" width="2.73453" height="2.73453" rx="1.29515" fill="white"/>
<rect x="212.842" y="387.367" width="2.73453" height="2.73453" rx="1.29515" fill="white"/>
<rect x="223.779" y="387.367" width="2.73453" height="2.73453" rx="1.29515" fill="white"/>
<rect x="234.718" y="387.367" width="2.73453" height="2.73453" rx="1.29515" fill="white"/>
<rect x="245.656" y="387.367" width="2.73453" height="2.73453" rx="1.29515" fill="white"/>
<rect x="256.594" y="387.367" width="2.73453" height="2.73453" rx="1.29515" fill="white"/>
<rect x="180.027" y="398.305" width="2.73453" height="2.73453" rx="1.29515" fill="white"/>
<rect x="190.965" y="398.305" width="2.73453" height="2.73453" rx="1.29515" fill="white"/>
<rect x="201.904" y="398.305" width="2.73453" height="2.73453" rx="1.29515" fill="white"/>
<rect x="212.842" y="398.305" width="2.73453" height="2.73453" rx="1.29515" fill="white"/>
<rect x="223.779" y="398.305" width="2.73453" height="2.73453" rx="1.29515" fill="white"/>
<rect x="234.718" y="398.305" width="2.73453" height="2.73453" rx="1.29515" fill="white"/>
<rect x="245.656" y="398.305" width="2.73453" height="2.73453" rx="1.29515" fill="white"/>
<rect x="256.594" y="398.305" width="2.73453" height="2.73453" rx="1.29515" fill="white"/>
<rect x="180.027" y="409.243" width="2.73453" height="2.73453" rx="1.29515" fill="white"/>
<rect x="190.965" y="409.243" width="2.73453" height="2.73453" rx="1.29515" fill="white"/>
<rect x="201.904" y="409.243" width="2.73453" height="2.73453" rx="1.29515" fill="white"/>
<rect x="212.842" y="409.243" width="2.73453" height="2.73453" rx="1.29515" fill="white"/>
<rect x="223.779" y="409.243" width="2.73453" height="2.73453" rx="1.29515" fill="white"/>
<rect x="234.718" y="409.243" width="2.73453" height="2.73453" rx="1.29515" fill="white"/>
<rect x="245.656" y="409.243" width="2.73453" height="2.73453" rx="1.29515" fill="white"/>
<rect x="256.594" y="409.243" width="2.73453" height="2.73453" rx="1.29515" fill="white"/>
<rect x="180.027" y="420.181" width="2.73453" height="2.73453" rx="1.29515" fill="white"/>
<rect x="190.965" y="420.181" width="2.73453" height="2.73453" rx="1.29515" fill="white"/>
<rect x="201.904" y="420.181" width="2.73453" height="2.73453" rx="1.29515" fill="white"/>
<rect x="212.842" y="420.181" width="2.73453" height="2.73453" rx="1.29515" fill="white"/>
<rect x="223.779" y="420.181" width="2.73453" height="2.73453" rx="1.29515" fill="white"/>
<rect x="234.718" y="420.181" width="2.73453" height="2.73453" rx="1.29515" fill="white"/>
<rect x="245.656" y="420.181" width="2.73453" height="2.73453" rx="1.29515" fill="white"/>
<rect x="256.594" y="420.181" width="2.73453" height="2.73453" rx="1.29515" fill="white"/>
<rect x="180.027" y="431.119" width="2.73453" height="2.73453" rx="1.29515" fill="white"/>
<rect x="190.965" y="431.119" width="2.73453" height="2.73453" rx="1.29515" fill="white"/>
<rect x="201.904" y="431.119" width="2.73453" height="2.73453" rx="1.29515" fill="white"/>
<rect x="212.842" y="431.119" width="2.73453" height="2.73453" rx="1.29515" fill="white"/>
<rect x="223.779" y="431.119" width="2.73453" height="2.73453" rx="1.29515" fill="white"/>
<rect x="234.718" y="431.119" width="2.73453" height="2.73453" rx="1.29515" fill="white"/>
<rect x="245.656" y="431.119" width="2.73453" height="2.73453" rx="1.29515" fill="white"/>
<rect x="256.594" y="431.119" width="2.73453" height="2.73453" rx="1.29515" fill="white"/>
<rect x="180.027" y="442.057" width="2.73453" height="2.73453" rx="1.29515" fill="white"/>
<rect x="180.027" y="452.607" width="2.73453" height="2.73453" rx="1.29515" fill="white"/>
<rect x="180.027" y="463.156" width="2.73453" height="2.73453" rx="1.29515" fill="white"/>
<rect x="180.027" y="473.706" width="2.73453" height="2.73453" rx="1.29515" fill="white"/>
<rect x="190.965" y="442.057" width="2.73453" height="2.73453" rx="1.29515" fill="white"/>
<rect x="190.965" y="452.607" width="2.73453" height="2.73453" rx="1.29515" fill="white"/>
<rect x="190.965" y="463.156" width="2.73453" height="2.73453" rx="1.29515" fill="white"/>
<rect x="190.965" y="473.706" width="2.73453" height="2.73453" rx="1.29515" fill="white"/>
<rect x="201.904" y="442.057" width="2.73453" height="2.73453" rx="1.29515" fill="white"/>
<rect x="201.904" y="452.607" width="2.73453" height="2.73453" rx="1.29515" fill="white"/>
<rect x="201.904" y="463.156" width="2.73453" height="2.73453" rx="1.29515" fill="white"/>
<rect x="201.904" y="473.706" width="2.73453" height="2.73453" rx="1.29515" fill="white"/>
<rect x="212.842" y="442.057" width="2.73453" height="2.73453" rx="1.29515" fill="white"/>
<rect x="212.842" y="452.607" width="2.73453" height="2.73453" rx="1.29515" fill="white"/>
<rect x="212.842" y="463.156" width="2.73453" height="2.73453" rx="1.29515" fill="white"/>
<rect x="212.842" y="473.706" width="2.73453" height="2.73453" rx="1.29515" fill="white"/>
<rect x="223.779" y="442.057" width="2.73453" height="2.73453" rx="1.29515" fill="white"/>
<rect x="223.779" y="452.607" width="2.73453" height="2.73453" rx="1.29515" fill="white"/>
<rect x="223.779" y="463.156" width="2.73453" height="2.73453" rx="1.29515" fill="white"/>
<rect x="223.779" y="473.706" width="2.73453" height="2.73453" rx="1.29515" fill="white"/>
<rect x="234.718" y="442.057" width="2.73453" height="2.73453" rx="1.29515" fill="white"/>
<rect x="234.718" y="452.607" width="2.73453" height="2.73453" rx="1.29515" fill="white"/>
<rect x="234.718" y="463.156" width="2.73453" height="2.73453" rx="1.29515" fill="white"/>
<rect x="234.718" y="473.706" width="2.73453" height="2.73453" rx="1.29515" fill="white"/>
<rect x="245.656" y="442.057" width="2.73453" height="2.73453" rx="1.29515" fill="white"/>
<rect x="245.656" y="452.607" width="2.73453" height="2.73453" rx="1.29515" fill="white"/>
<rect x="245.656" y="463.156" width="2.73453" height="2.73453" rx="1.29515" fill="white"/>
<rect x="245.656" y="473.706" width="2.73453" height="2.73453" rx="1.29515" fill="white"/>
<rect x="256.594" y="442.057" width="2.73453" height="2.73453" rx="1.29515" fill="white"/>
<rect x="256.594" y="452.607" width="2.73453" height="2.73453" rx="1.29515" fill="white"/>
<rect x="256.594" y="463.156" width="2.73453" height="2.73453" rx="1.29515" fill="white"/>
<rect x="256.594" y="473.706" width="2.73453" height="2.73453" rx="1.29515" fill="white"/>
</g>
</g>
<g clip-path="url(#clip7_384_225381)">
<g clip-path="url(#clip8_384_225381)">
<rect x="268.027" y="387.367" width="2.73453" height="2.73453" rx="1.29515" fill="white"/>
<rect x="278.965" y="387.367" width="2.73453" height="2.73453" rx="1.29515" fill="white"/>
<rect x="289.904" y="387.367" width="2.73453" height="2.73453" rx="1.29515" fill="white"/>
<rect x="300.842" y="387.367" width="2.73453" height="2.73453" rx="1.29515" fill="white"/>
<rect x="311.779" y="387.367" width="2.73453" height="2.73453" rx="1.29515" fill="white"/>
<rect x="322.718" y="387.367" width="2.73453" height="2.73453" rx="1.29515" fill="white"/>
<rect x="333.656" y="387.367" width="2.73453" height="2.73453" rx="1.29515" fill="white"/>
<rect x="344.594" y="387.367" width="2.73453" height="2.73453" rx="1.29515" fill="white"/>
<rect x="268.027" y="398.305" width="2.73453" height="2.73453" rx="1.29515" fill="white"/>
<rect x="278.965" y="398.305" width="2.73453" height="2.73453" rx="1.29515" fill="white"/>
<rect x="289.904" y="398.305" width="2.73453" height="2.73453" rx="1.29515" fill="white"/>
<rect x="300.842" y="398.305" width="2.73453" height="2.73453" rx="1.29515" fill="white"/>
<rect x="311.779" y="398.305" width="2.73453" height="2.73453" rx="1.29515" fill="white"/>
<rect x="322.718" y="398.305" width="2.73453" height="2.73453" rx="1.29515" fill="white"/>
<rect x="333.656" y="398.305" width="2.73453" height="2.73453" rx="1.29515" fill="white"/>
<rect x="344.594" y="398.305" width="2.73453" height="2.73453" rx="1.29515" fill="white"/>
<rect x="268.027" y="409.243" width="2.73453" height="2.73453" rx="1.29515" fill="white"/>
<rect x="278.965" y="409.243" width="2.73453" height="2.73453" rx="1.29515" fill="white"/>
<rect x="289.904" y="409.243" width="2.73453" height="2.73453" rx="1.29515" fill="white"/>
<rect x="300.842" y="409.243" width="2.73453" height="2.73453" rx="1.29515" fill="white"/>
<rect x="311.779" y="409.243" width="2.73453" height="2.73453" rx="1.29515" fill="white"/>
<rect x="322.718" y="409.243" width="2.73453" height="2.73453" rx="1.29515" fill="white"/>
<rect x="333.656" y="409.243" width="2.73453" height="2.73453" rx="1.29515" fill="white"/>
<rect x="344.594" y="409.243" width="2.73453" height="2.73453" rx="1.29515" fill="white"/>
<rect x="268.027" y="420.181" width="2.73453" height="2.73453" rx="1.29515" fill="white"/>
<rect x="278.965" y="420.181" width="2.73453" height="2.73453" rx="1.29515" fill="white"/>
<rect x="289.904" y="420.181" width="2.73453" height="2.73453" rx="1.29515" fill="white"/>
<rect x="300.842" y="420.181" width="2.73453" height="2.73453" rx="1.29515" fill="white"/>
<rect x="311.779" y="420.181" width="2.73453" height="2.73453" rx="1.29515" fill="white"/>
<rect x="322.718" y="420.181" width="2.73453" height="2.73453" rx="1.29515" fill="white"/>
<rect x="333.656" y="420.181" width="2.73453" height="2.73453" rx="1.29515" fill="white"/>
<rect x="344.594" y="420.181" width="2.73453" height="2.73453" rx="1.29515" fill="white"/>
<rect x="268.027" y="431.119" width="2.73453" height="2.73453" rx="1.29515" fill="white"/>
<rect x="278.965" y="431.119" width="2.73453" height="2.73453" rx="1.29515" fill="white"/>
<rect x="289.904" y="431.119" width="2.73453" height="2.73453" rx="1.29515" fill="white"/>
<rect x="300.842" y="431.119" width="2.73453" height="2.73453" rx="1.29515" fill="white"/>
<rect x="311.779" y="431.119" width="2.73453" height="2.73453" rx="1.29515" fill="white"/>
<rect x="322.718" y="431.119" width="2.73453" height="2.73453" rx="1.29515" fill="white"/>
<rect x="333.656" y="431.119" width="2.73453" height="2.73453" rx="1.29515" fill="white"/>
<rect x="344.594" y="431.119" width="2.73453" height="2.73453" rx="1.29515" fill="white"/>
<rect x="268.027" y="442.057" width="2.73453" height="2.73453" rx="1.29515" fill="white"/>
<rect x="268.027" y="452.607" width="2.73453" height="2.73453" rx="1.29515" fill="white"/>
<rect x="268.027" y="463.156" width="2.73453" height="2.73453" rx="1.29515" fill="white"/>
<rect x="268.027" y="473.706" width="2.73453" height="2.73453" rx="1.29515" fill="white"/>
<rect x="278.965" y="442.057" width="2.73453" height="2.73453" rx="1.29515" fill="white"/>
<rect x="278.965" y="452.607" width="2.73453" height="2.73453" rx="1.29515" fill="white"/>
<rect x="278.965" y="463.156" width="2.73453" height="2.73453" rx="1.29515" fill="white"/>
<rect x="278.965" y="473.706" width="2.73453" height="2.73453" rx="1.29515" fill="white"/>
<rect x="289.904" y="442.057" width="2.73453" height="2.73453" rx="1.29515" fill="white"/>
<rect x="289.904" y="452.607" width="2.73453" height="2.73453" rx="1.29515" fill="white"/>
<rect x="289.904" y="463.156" width="2.73453" height="2.73453" rx="1.29515" fill="white"/>
<rect x="289.904" y="473.706" width="2.73453" height="2.73453" rx="1.29515" fill="white"/>
<rect x="300.842" y="442.057" width="2.73453" height="2.73453" rx="1.29515" fill="white"/>
<rect x="300.842" y="452.607" width="2.73453" height="2.73453" rx="1.29515" fill="white"/>
<rect x="300.842" y="463.156" width="2.73453" height="2.73453" rx="1.29515" fill="white"/>
<rect x="300.842" y="473.706" width="2.73453" height="2.73453" rx="1.29515" fill="white"/>
<rect x="311.779" y="442.057" width="2.73453" height="2.73453" rx="1.29515" fill="white"/>
<rect x="311.779" y="452.607" width="2.73453" height="2.73453" rx="1.29515" fill="white"/>
<rect x="311.779" y="463.156" width="2.73453" height="2.73453" rx="1.29515" fill="white"/>
<rect x="311.779" y="473.706" width="2.73453" height="2.73453" rx="1.29515" fill="white"/>
<rect x="322.718" y="442.057" width="2.73453" height="2.73453" rx="1.29515" fill="white"/>
<rect x="322.718" y="452.607" width="2.73453" height="2.73453" rx="1.29515" fill="white"/>
<rect x="322.718" y="463.156" width="2.73453" height="2.73453" rx="1.29515" fill="white"/>
<rect x="322.718" y="473.706" width="2.73453" height="2.73453" rx="1.29515" fill="white"/>
<rect x="333.656" y="442.057" width="2.73453" height="2.73453" rx="1.29515" fill="white"/>
<rect x="333.656" y="452.607" width="2.73453" height="2.73453" rx="1.29515" fill="white"/>
<rect x="333.656" y="463.156" width="2.73453" height="2.73453" rx="1.29515" fill="white"/>
<rect x="333.656" y="473.706" width="2.73453" height="2.73453" rx="1.29515" fill="white"/>
<rect x="344.594" y="442.057" width="2.73453" height="2.73453" rx="1.29515" fill="white"/>
<rect x="344.594" y="452.607" width="2.73453" height="2.73453" rx="1.29515" fill="white"/>
<rect x="344.594" y="463.156" width="2.73453" height="2.73453" rx="1.29515" fill="white"/>
<rect x="344.594" y="473.706" width="2.73453" height="2.73453" rx="1.29515" fill="white"/>
</g>
</g>
<g clip-path="url(#clip9_384_225381)">
<g clip-path="url(#clip10_384_225381)">
<rect x="356.027" y="387.367" width="2.73453" height="2.73453" rx="1.29515" fill="white"/>
<rect x="366.965" y="387.367" width="2.73453" height="2.73453" rx="1.29515" fill="white"/>
<rect x="377.904" y="387.367" width="2.73453" height="2.73453" rx="1.29515" fill="white"/>
<rect x="388.842" y="387.367" width="2.73453" height="2.73453" rx="1.29515" fill="white"/>
<rect x="399.779" y="387.367" width="2.73453" height="2.73453" rx="1.29515" fill="white"/>
<rect x="410.718" y="387.367" width="2.73453" height="2.73453" rx="1.29515" fill="white"/>
<rect x="421.656" y="387.367" width="2.73453" height="2.73453" rx="1.29515" fill="white"/>
<rect x="432.594" y="387.367" width="2.73453" height="2.73453" rx="1.29515" fill="white"/>
<rect x="356.027" y="398.305" width="2.73453" height="2.73453" rx="1.29515" fill="white"/>
<rect x="366.965" y="398.305" width="2.73453" height="2.73453" rx="1.29515" fill="white"/>
<rect x="377.904" y="398.305" width="2.73453" height="2.73453" rx="1.29515" fill="white"/>
<rect x="388.842" y="398.305" width="2.73453" height="2.73453" rx="1.29515" fill="white"/>
<rect x="399.779" y="398.305" width="2.73453" height="2.73453" rx="1.29515" fill="white"/>
<rect x="410.718" y="398.305" width="2.73453" height="2.73453" rx="1.29515" fill="white"/>
<rect x="421.656" y="398.305" width="2.73453" height="2.73453" rx="1.29515" fill="white"/>
<rect x="432.594" y="398.305" width="2.73453" height="2.73453" rx="1.29515" fill="white"/>
<rect x="356.027" y="409.243" width="2.73453" height="2.73453" rx="1.29515" fill="white"/>
<rect x="366.965" y="409.243" width="2.73453" height="2.73453" rx="1.29515" fill="white"/>
<rect x="377.904" y="409.243" width="2.73453" height="2.73453" rx="1.29515" fill="white"/>
<rect x="388.842" y="409.243" width="2.73453" height="2.73453" rx="1.29515" fill="white"/>
<rect x="399.779" y="409.243" width="2.73453" height="2.73453" rx="1.29515" fill="white"/>
<rect x="410.718" y="409.243" width="2.73453" height="2.73453" rx="1.29515" fill="white"/>
<rect x="421.656" y="409.243" width="2.73453" height="2.73453" rx="1.29515" fill="white"/>
<rect x="432.594" y="409.243" width="2.73453" height="2.73453" rx="1.29515" fill="white"/>
<rect x="356.027" y="420.181" width="2.73453" height="2.73453" rx="1.29515" fill="white"/>
<rect x="366.965" y="420.181" width="2.73453" height="2.73453" rx="1.29515" fill="white"/>
<rect x="377.904" y="420.181" width="2.73453" height="2.73453" rx="1.29515" fill="white"/>
<rect x="388.842" y="420.181" width="2.73453" height="2.73453" rx="1.29515" fill="white"/>
<rect x="399.779" y="420.181" width="2.73453" height="2.73453" rx="1.29515" fill="white"/>
<rect x="410.718" y="420.181" width="2.73453" height="2.73453" rx="1.29515" fill="white"/>
<rect x="421.656" y="420.181" width="2.73453" height="2.73453" rx="1.29515" fill="white"/>
<rect x="432.594" y="420.181" width="2.73453" height="2.73453" rx="1.29515" fill="white"/>
<rect x="356.027" y="431.119" width="2.73453" height="2.73453" rx="1.29515" fill="white"/>
<rect x="366.965" y="431.119" width="2.73453" height="2.73453" rx="1.29515" fill="white"/>
<rect x="377.904" y="431.119" width="2.73453" height="2.73453" rx="1.29515" fill="white"/>
<rect x="388.842" y="431.119" width="2.73453" height="2.73453" rx="1.29515" fill="white"/>
<rect x="399.779" y="431.119" width="2.73453" height="2.73453" rx="1.29515" fill="white"/>
<rect x="410.718" y="431.119" width="2.73453" height="2.73453" rx="1.29515" fill="white"/>
<rect x="421.656" y="431.119" width="2.73453" height="2.73453" rx="1.29515" fill="white"/>
<rect x="432.594" y="431.119" width="2.73453" height="2.73453" rx="1.29515" fill="white"/>
<rect x="356.027" y="442.057" width="2.73453" height="2.73453" rx="1.29515" fill="white"/>
<rect x="356.027" y="452.607" width="2.73453" height="2.73453" rx="1.29515" fill="white"/>
<rect x="356.027" y="463.156" width="2.73453" height="2.73453" rx="1.29515" fill="white"/>
<rect x="356.027" y="473.706" width="2.73453" height="2.73453" rx="1.29515" fill="white"/>
<rect x="366.965" y="442.057" width="2.73453" height="2.73453" rx="1.29515" fill="white"/>
<rect x="366.965" y="452.607" width="2.73453" height="2.73453" rx="1.29515" fill="white"/>
<rect x="366.965" y="463.156" width="2.73453" height="2.73453" rx="1.29515" fill="white"/>
<rect x="366.965" y="473.706" width="2.73453" height="2.73453" rx="1.29515" fill="white"/>
<rect x="377.904" y="442.057" width="2.73453" height="2.73453" rx="1.29515" fill="white"/>
<rect x="377.904" y="452.607" width="2.73453" height="2.73453" rx="1.29515" fill="white"/>
<rect x="377.904" y="463.156" width="2.73453" height="2.73453" rx="1.29515" fill="white"/>
<rect x="377.904" y="473.706" width="2.73453" height="2.73453" rx="1.29515" fill="white"/>
<rect x="388.842" y="442.057" width="2.73453" height="2.73453" rx="1.29515" fill="white"/>
<rect x="388.842" y="452.607" width="2.73453" height="2.73453" rx="1.29515" fill="white"/>
<rect x="388.842" y="463.156" width="2.73453" height="2.73453" rx="1.29515" fill="white"/>
<rect x="388.842" y="473.706" width="2.73453" height="2.73453" rx="1.29515" fill="white"/>
<rect x="399.779" y="442.057" width="2.73453" height="2.73453" rx="1.29515" fill="white"/>
<rect x="399.779" y="452.607" width="2.73453" height="2.73453" rx="1.29515" fill="white"/>
<rect x="399.779" y="463.156" width="2.73453" height="2.73453" rx="1.29515" fill="white"/>
<rect x="399.779" y="473.706" width="2.73453" height="2.73453" rx="1.29515" fill="white"/>
<rect x="410.718" y="442.057" width="2.73453" height="2.73453" rx="1.29515" fill="white"/>
<rect x="410.718" y="452.607" width="2.73453" height="2.73453" rx="1.29515" fill="white"/>
<rect x="410.718" y="463.156" width="2.73453" height="2.73453" rx="1.29515" fill="white"/>
<rect x="410.718" y="473.706" width="2.73453" height="2.73453" rx="1.29515" fill="white"/>
<rect x="421.656" y="442.057" width="2.73453" height="2.73453" rx="1.29515" fill="white"/>
<rect x="421.656" y="452.607" width="2.73453" height="2.73453" rx="1.29515" fill="white"/>
<rect x="421.656" y="463.156" width="2.73453" height="2.73453" rx="1.29515" fill="white"/>
<rect x="421.656" y="473.706" width="2.73453" height="2.73453" rx="1.29515" fill="white"/>
<rect x="432.594" y="442.057" width="2.73453" height="2.73453" rx="1.29515" fill="white"/>
<rect x="432.594" y="452.607" width="2.73453" height="2.73453" rx="1.29515" fill="white"/>
<rect x="432.594" y="463.156" width="2.73453" height="2.73453" rx="1.29515" fill="white"/>
<rect x="432.594" y="473.706" width="2.73453" height="2.73453" rx="1.29515" fill="white"/>
</g>
</g>
<g clip-path="url(#clip11_384_225381)">
<g clip-path="url(#clip12_384_225381)">
<rect x="444.027" y="387.367" width="2.73453" height="2.73453" rx="1.29515" fill="white"/>
<rect x="454.965" y="387.367" width="2.73453" height="2.73453" rx="1.29515" fill="white"/>
<rect x="465.904" y="387.367" width="2.73453" height="2.73453" rx="1.29515" fill="white"/>
<rect x="476.842" y="387.367" width="2.73453" height="2.73453" rx="1.29515" fill="white"/>
<rect x="487.779" y="387.367" width="2.73453" height="2.73453" rx="1.29515" fill="white"/>
<rect x="498.718" y="387.367" width="2.73453" height="2.73453" rx="1.29515" fill="white"/>
<rect x="509.656" y="387.367" width="2.73453" height="2.73453" rx="1.29515" fill="white"/>
<rect x="520.594" y="387.367" width="2.73453" height="2.73453" rx="1.29515" fill="white"/>
<rect x="444.027" y="398.305" width="2.73453" height="2.73453" rx="1.29515" fill="white"/>
<rect x="454.965" y="398.305" width="2.73453" height="2.73453" rx="1.29515" fill="white"/>
<rect x="465.904" y="398.305" width="2.73453" height="2.73453" rx="1.29515" fill="white"/>
<rect x="476.842" y="398.305" width="2.73453" height="2.73453" rx="1.29515" fill="white"/>
<rect x="487.779" y="398.305" width="2.73453" height="2.73453" rx="1.29515" fill="white"/>
<rect x="498.718" y="398.305" width="2.73453" height="2.73453" rx="1.29515" fill="white"/>
<rect x="509.656" y="398.305" width="2.73453" height="2.73453" rx="1.29515" fill="white"/>
<rect x="520.594" y="398.305" width="2.73453" height="2.73453" rx="1.29515" fill="white"/>
<rect x="444.027" y="409.243" width="2.73453" height="2.73453" rx="1.29515" fill="white"/>
<rect x="454.965" y="409.243" width="2.73453" height="2.73453" rx="1.29515" fill="white"/>
<rect x="465.904" y="409.243" width="2.73453" height="2.73453" rx="1.29515" fill="white"/>
<rect x="476.842" y="409.243" width="2.73453" height="2.73453" rx="1.29515" fill="white"/>
<rect x="487.779" y="409.243" width="2.73453" height="2.73453" rx="1.29515" fill="white"/>
<rect x="498.718" y="409.243" width="2.73453" height="2.73453" rx="1.29515" fill="white"/>
<rect x="509.656" y="409.243" width="2.73453" height="2.73453" rx="1.29515" fill="white"/>
<rect x="520.594" y="409.243" width="2.73453" height="2.73453" rx="1.29515" fill="white"/>
<rect x="444.027" y="420.181" width="2.73453" height="2.73453" rx="1.29515" fill="white"/>
<rect x="454.965" y="420.181" width="2.73453" height="2.73453" rx="1.29515" fill="white"/>
<rect x="465.904" y="420.181" width="2.73453" height="2.73453" rx="1.29515" fill="white"/>
<rect x="476.842" y="420.181" width="2.73453" height="2.73453" rx="1.29515" fill="white"/>
<rect x="487.779" y="420.181" width="2.73453" height="2.73453" rx="1.29515" fill="white"/>
<rect x="498.718" y="420.181" width="2.73453" height="2.73453" rx="1.29515" fill="white"/>
<rect x="509.656" y="420.181" width="2.73453" height="2.73453" rx="1.29515" fill="white"/>
<rect x="520.594" y="420.181" width="2.73453" height="2.73453" rx="1.29515" fill="white"/>
<rect x="444.027" y="431.119" width="2.73453" height="2.73453" rx="1.29515" fill="white"/>
<rect x="454.965" y="431.119" width="2.73453" height="2.73453" rx="1.29515" fill="white"/>
<rect x="465.904" y="431.119" width="2.73453" height="2.73453" rx="1.29515" fill="white"/>
<rect x="476.842" y="431.119" width="2.73453" height="2.73453" rx="1.29515" fill="white"/>
<rect x="487.779" y="431.119" width="2.73453" height="2.73453" rx="1.29515" fill="white"/>
<rect x="498.718" y="431.119" width="2.73453" height="2.73453" rx="1.29515" fill="white"/>
<rect x="509.656" y="431.119" width="2.73453" height="2.73453" rx="1.29515" fill="white"/>
<rect x="520.594" y="431.119" width="2.73453" height="2.73453" rx="1.29515" fill="white"/>
<rect x="444.027" y="442.057" width="2.73453" height="2.73453" rx="1.29515" fill="white"/>
<rect x="444.027" y="452.607" width="2.73453" height="2.73453" rx="1.29515" fill="white"/>
<rect x="444.027" y="463.156" width="2.73453" height="2.73453" rx="1.29515" fill="white"/>
<rect x="444.027" y="473.706" width="2.73453" height="2.73453" rx="1.29515" fill="white"/>
<rect x="454.965" y="442.057" width="2.73453" height="2.73453" rx="1.29515" fill="white"/>
<rect x="454.965" y="452.607" width="2.73453" height="2.73453" rx="1.29515" fill="white"/>
<rect x="454.965" y="463.156" width="2.73453" height="2.73453" rx="1.29515" fill="white"/>
<rect x="454.965" y="473.706" width="2.73453" height="2.73453" rx="1.29515" fill="white"/>
<rect x="465.904" y="442.057" width="2.73453" height="2.73453" rx="1.29515" fill="white"/>
<rect x="465.904" y="452.607" width="2.73453" height="2.73453" rx="1.29515" fill="white"/>
<rect x="465.904" y="463.156" width="2.73453" height="2.73453" rx="1.29515" fill="white"/>
<rect x="465.904" y="473.706" width="2.73453" height="2.73453" rx="1.29515" fill="white"/>
<rect x="476.842" y="442.057" width="2.73453" height="2.73453" rx="1.29515" fill="white"/>
<rect x="476.842" y="452.607" width="2.73453" height="2.73453" rx="1.29515" fill="white"/>
<rect x="476.842" y="463.156" width="2.73453" height="2.73453" rx="1.29515" fill="white"/>
<rect x="476.842" y="473.706" width="2.73453" height="2.73453" rx="1.29515" fill="white"/>
<rect x="487.779" y="442.057" width="2.73453" height="2.73453" rx="1.29515" fill="white"/>
<rect x="487.779" y="452.607" width="2.73453" height="2.73453" rx="1.29515" fill="white"/>
<rect x="487.779" y="463.156" width="2.73453" height="2.73453" rx="1.29515" fill="white"/>
<rect x="487.779" y="473.706" width="2.73453" height="2.73453" rx="1.29515" fill="white"/>
<rect x="498.718" y="442.057" width="2.73453" height="2.73453" rx="1.29515" fill="white"/>
<rect x="498.718" y="452.607" width="2.73453" height="2.73453" rx="1.29515" fill="white"/>
<rect x="498.718" y="463.156" width="2.73453" height="2.73453" rx="1.29515" fill="white"/>
<rect x="498.718" y="473.706" width="2.73453" height="2.73453" rx="1.29515" fill="white"/>
<rect x="509.656" y="442.057" width="2.73453" height="2.73453" rx="1.29515" fill="white"/>
<rect x="509.656" y="452.607" width="2.73453" height="2.73453" rx="1.29515" fill="white"/>
<rect x="509.656" y="463.156" width="2.73453" height="2.73453" rx="1.29515" fill="white"/>
<rect x="509.656" y="473.706" width="2.73453" height="2.73453" rx="1.29515" fill="white"/>
<rect x="520.594" y="442.057" width="2.73453" height="2.73453" rx="1.29515" fill="white"/>
<rect x="520.594" y="452.607" width="2.73453" height="2.73453" rx="1.29515" fill="white"/>
<rect x="520.594" y="463.156" width="2.73453" height="2.73453" rx="1.29515" fill="white"/>
<rect x="520.594" y="473.706" width="2.73453" height="2.73453" rx="1.29515" fill="white"/>
</g>
</g>
<path d="M541.005 390.392C536.837 390.391 532.742 389.295 529.13 387.214L315.38 263.779C304.019 257.217 300.128 242.686 306.691 231.324C308.775 227.716 311.772 224.719 315.38 222.634L529.13 99.292C536.484 95.0706 545.526 95.0706 552.88 99.292L766.63 222.634C777.992 229.197 781.883 243.728 775.32 255.089C773.236 258.698 770.239 261.695 766.63 263.779L552.88 387.214C549.269 389.295 545.174 390.391 541.005 390.392Z" fill="#E6D2FF"/>
<path d="M541.005 294.86C536.837 294.86 532.742 293.764 529.13 291.683L315.38 168.248C304.019 161.685 300.128 147.155 306.691 135.793C308.775 132.184 311.772 129.187 315.38 127.103L529.13 3.76072C536.484 -0.460605 545.526 -0.460605 552.88 3.76072L766.63 127.103C777.992 133.666 781.883 148.196 775.32 159.558C773.236 163.167 770.239 166.164 766.63 168.248L552.88 291.683C549.269 293.764 545.174 294.86 541.005 294.86Z" fill="white"/>
<path d="M766.63 317.632L719.983 290.715L552.88 387.212C545.531 391.449 536.48 391.449 529.13 387.212L362.028 290.715L315.38 317.632C304.019 324.195 300.128 338.726 306.691 350.087C308.775 353.696 311.772 356.693 315.38 358.777L529.13 482.212C536.48 486.449 545.531 486.449 552.88 482.212L766.63 358.777C777.992 352.215 781.883 337.684 775.32 326.322C773.236 322.714 770.239 319.717 766.63 317.632Z" fill="#D4B1FF"/>
<path d="M766.63 412.633L719.983 385.715L552.88 482.213C545.531 486.449 536.48 486.449 529.13 482.213L362.028 385.715L315.38 412.633C304.019 419.195 300.128 433.726 306.691 445.088C308.775 448.697 311.772 451.694 315.38 453.778L529.13 577.213C536.48 581.449 545.531 581.449 552.88 577.213L766.63 453.778C777.992 447.215 781.883 432.685 775.32 421.323C773.236 417.714 770.239 414.717 766.63 412.633Z" fill="#C08EFF"/>
</g>
<defs>
<clipPath id="clip0_384_225381">
<rect width="712" height="502" fill="white"/>
</clipPath>
<clipPath id="clip1_384_225381">
<rect width="88" height="94" fill="white" transform="translate(0.364624 382)"/>
</clipPath>
<clipPath id="clip2_384_225381">
<rect width="1289.72" height="100.012" fill="white" transform="translate(-1198.47 376.429)"/>
</clipPath>
<clipPath id="clip3_384_225381">
<rect width="88" height="94" fill="white" transform="translate(88.3646 382)"/>
</clipPath>
<clipPath id="clip4_384_225381">
<rect width="1289.72" height="100.012" fill="white" transform="translate(-1110.47 376.429)"/>
</clipPath>
<clipPath id="clip5_384_225381">
<rect width="88" height="94" fill="white" transform="translate(176.365 382)"/>
</clipPath>
<clipPath id="clip6_384_225381">
<rect width="1289.72" height="100.012" fill="white" transform="translate(-1022.47 376.429)"/>
</clipPath>
<clipPath id="clip7_384_225381">
<rect width="88" height="94" fill="white" transform="translate(264.365 382)"/>
</clipPath>
<clipPath id="clip8_384_225381">
<rect width="1289.72" height="100.012" fill="white" transform="translate(-934.47 376.429)"/>
</clipPath>
<clipPath id="clip9_384_225381">
<rect width="88" height="94" fill="white" transform="translate(352.365 382)"/>
</clipPath>
<clipPath id="clip10_384_225381">
<rect width="1289.72" height="100.012" fill="white" transform="translate(-846.47 376.429)"/>
</clipPath>
<clipPath id="clip11_384_225381">
<rect width="88" height="94" fill="white" transform="translate(440.365 382)"/>
</clipPath>
<clipPath id="clip12_384_225381">
<rect width="1289.72" height="100.012" fill="white" transform="translate(-758.47 376.429)"/>
</clipPath>
</defs>
</svg>
